<svg xmlns="http://www.w3.org/2000/svg" width="167.273" height="47.151" viewBox="0 0 167.273 47.151">
  <defs>
    <style>
      .cls-1 {
        fill: #28a842;
      }
    </style>
  </defs>
  <g id="Group_3" data-name="Group 3" transform="translate(-128.809 -504.31)">
    <g id="Group_1" data-name="Group 1" transform="translate(128.809 504.309)">
      <ellipse id="Ellipse_1" data-name="Ellipse 1" class="cls-1" cx="3.041" cy="2.661" rx="3.041" ry="2.661" transform="translate(59.334 4.408) rotate(-12.906)"/>
      <path id="Path_1" data-name="Path 1" class="cls-1" d="M365.519,592.667h-7.076l-4.916-20.584h6.332l2.044,11.4a32.469,32.469,0,0,1,.57,4.2h.08q.1-.362,1.364-4.161l4.3-11.438h7Z" transform="translate(-317.925 -561.345)"/>
      <path id="Path_2" data-name="Path 2" class="cls-1" d="M494.65,592.667h-6.433l2.16-20.584h6.433Z" transform="translate(-431.275 -561.345)"/>
      <path id="Path_3" data-name="Path 3" class="cls-1" d="M571.115,542.386h-4.8l-.825,7.7a12.168,12.168,0,0,0-.108,2.191,1.648,1.648,0,0,0,1.9,1.568,8.686,8.686,0,0,0,2.647-.623l-.482,4.7a12.906,12.906,0,0,1-4.555.824q-5.307,0-5.853-5.106a17.865,17.865,0,0,1,.125-3.337l.8-7.92h-3.176l.625-4.684h3.036l.529-4.824,6.518-1.648-.654,6.473h4.885Z" transform="translate(-488.977 -526.964)"/>
      <path id="Path_4" data-name="Path 4" class="cls-1" d="M659.354,582.06a.686.686,0,0,0-.017.221l.02.181a3.615,3.615,0,0,0,1.358,2.553,5.024,5.024,0,0,0,3.217.945,12.841,12.841,0,0,0,6.492-1.889l-.478,4.744a15.113,15.113,0,0,1-7.136,1.689,9.774,9.774,0,0,1-6.747-2.282,9.326,9.326,0,0,1-2.989-6.241,12.035,12.035,0,0,1,2.5-9.287,10.348,10.348,0,0,1,8.461-3.779,9.273,9.273,0,0,1,5.771,1.618,5.878,5.878,0,0,1,2.388,4.192,5.154,5.154,0,0,1-2.811,5.477Q666.18,581.98,659.354,582.06Zm-.017-3.92q7.185.08,6.82-3.337a1.789,1.789,0,0,0-.685-1.237,2.478,2.478,0,0,0-1.611-.493,3.954,3.954,0,0,0-2.951,1.357A6.379,6.379,0,0,0,659.336,578.141Z" transform="translate(-569.933 -558.678)"/>
      <path id="Path_5" data-name="Path 5" class="cls-1" d="M280.576,773.644a2.373,2.373,0,1,1-2.963-1.575A2.371,2.371,0,0,1,280.576,773.644Z" transform="translate(-252.624 -729.559)"/>
      <path id="Path_6" data-name="Path 6" class="cls-1" d="M228.8,583.139a2,2,0,0,0-1-1.218,2.765,2.765,0,0,0-1.868-.214,4.414,4.414,0,0,0-2.964,2.088,7.119,7.119,0,0,0-.974,4.39Q229.891,586.815,228.8,583.139Z" transform="translate(-207.21 -569.388)"/>
      <path id="Path_7" data-name="Path 7" class="cls-1" d="M162.927,516.755c-2.712-8.863-12.622-14.538-21.842-11.717s-14.256,13.07-11.544,21.933c3.763,12.3,24.1,19.094,24.1,19.094S167.046,530.215,162.927,516.755ZM149.908,535.97a10.91,10.91,0,0,1-7.868-1.136,10.411,10.411,0,0,1-4.547-6.244,13.433,13.433,0,0,1,.865-10.7,11.548,11.548,0,0,1,8.52-5.863,10.351,10.351,0,0,1,6.663.605,6.565,6.565,0,0,1,3.471,4.116,5.754,5.754,0,0,1-1.974,6.582q-3.16,2.6-10.635,4.076a.745.745,0,0,0,.026.246l.057.195a4.035,4.035,0,0,0,2.009,2.526,5.608,5.608,0,0,0,3.722.384,14.333,14.333,0,0,0,6.742-3.39l.438,5.3A16.868,16.868,0,0,1,149.908,535.97Z" transform="translate(-128.809 -504.309)"/>
      <path id="Path_8" data-name="Path 8" class="cls-1" d="M777.444,557.6H778a.959.959,0,0,1,.593.145.547.547,0,0,1,.184.46.583.583,0,0,1-.2.479.968.968,0,0,1-.621.167h-.509Zm.379,1.472a.3.3,0,0,1,.137.023.19.19,0,0,1,.069.06l.933,1.207a.1.1,0,0,0,.044.045.147.147,0,0,0,.062.011h.272l-.98-1.266a.52.52,0,0,0-.064-.081.354.354,0,0,0-.074-.056,1.058,1.058,0,0,0,.625-.275.762.762,0,0,0,.22-.564.7.7,0,0,0-.268-.6,1.34,1.34,0,0,0-.8-.2h-.849v3.043h.292V559.07ZM775.974,558a2.327,2.327,0,0,1,.487-.73,2.291,2.291,0,0,1,.724-.493,2.274,2.274,0,0,1,1.779,0A2.3,2.3,0,0,1,780.181,558a2.249,2.249,0,0,1,.179.9,2.315,2.315,0,0,1-.081.613,2.293,2.293,0,0,1-1.051,1.369,2.249,2.249,0,0,1-.546.23,2.292,2.292,0,0,1-.608.081,2.231,2.231,0,0,1-.889-.179,2.278,2.278,0,0,1-1.211-1.219,2.36,2.36,0,0,1,0-1.792m-.294,1.556a2.5,2.5,0,0,0,1.733,1.733,2.467,2.467,0,0,0,1.319,0,2.484,2.484,0,0,0,1.1-.639,2.5,2.5,0,0,0,.639-1.094,2.466,2.466,0,0,0,0-1.319,2.5,2.5,0,0,0-1.141-1.484,2.519,2.519,0,0,0-.594-.251,2.469,2.469,0,0,0-1.319,0,2.495,2.495,0,0,0-1.733,1.735,2.466,2.466,0,0,0,0,1.319" transform="translate(-673.119 -548.157)"/>
    </g>
    <g id="Group_2" data-name="Group 2" transform="translate(240.986 506.63)">
      <path id="Path_9" data-name="Path 9" class="cls-1" d="M841.6,537.051l-1.137,10.813h-3.624l3.039-28.908h7.942a13.329,13.329,0,0,1,4.374.635,7.3,7.3,0,0,1,2.937,1.806,6.372,6.372,0,0,1,1.553,2.824,10.244,10.244,0,0,1,.222,3.692,10.737,10.737,0,0,1-1.045,3.692,9.217,9.217,0,0,1-2.228,2.885,10.068,10.068,0,0,1-3.343,1.886,13.281,13.281,0,0,1-4.371.676Zm.326-3.107h4.319a8.255,8.255,0,0,0,2.8-.444,6.38,6.38,0,0,0,2.13-1.241,5.994,5.994,0,0,0,1.421-1.906,7.42,7.42,0,0,0,.67-2.441,5.283,5.283,0,0,0-1.133-4.317q-1.423-1.553-4.634-1.553h-4.319Z" transform="translate(-836.843 -518.956)"/>
      <path id="Path_10" data-name="Path 10" class="cls-1" d="M975.979,590.941l2.148-20.435h1.915a.925.925,0,0,1,.728.222,1.3,1.3,0,0,1,.2.767l-.109,3.187a10.789,10.789,0,0,1,2.764-3.339,5.6,5.6,0,0,1,3.5-1.2,4.756,4.756,0,0,1,1.407.192,4.269,4.269,0,0,1,1.127.535l-.714,2.683a.654.654,0,0,1-.635.5,2.553,2.553,0,0,1-.787-.192,5.088,5.088,0,0,0-4.535.9,9.513,9.513,0,0,0-2.295,3.167l-1.368,13.012Z" transform="translate(-953.935 -562.032)"/>
      <path id="Path_11" data-name="Path 11" class="cls-1" d="M1079.215,570.4a8.638,8.638,0,0,1,3.686.747,6.852,6.852,0,0,1,2.632,2.118,8.446,8.446,0,0,1,1.453,3.319,13.68,13.68,0,0,1,.173,4.347,14.938,14.938,0,0,1-1.087,4.357,10.967,10.967,0,0,1-2.15,3.308,9.084,9.084,0,0,1-3.076,2.108,9.844,9.844,0,0,1-3.842.736,8.743,8.743,0,0,1-3.687-.736,6.834,6.834,0,0,1-2.642-2.108,8.479,8.479,0,0,1-1.473-3.308,13.476,13.476,0,0,1-.181-4.357,14.778,14.778,0,0,1,1.1-4.347,11.01,11.01,0,0,1,2.17-3.319,9.321,9.321,0,0,1,3.086-2.118A9.738,9.738,0,0,1,1079.215,570.4Zm-1.917,18.237a5.321,5.321,0,0,0,4.419-2.027,10.806,10.806,0,0,0,1.984-5.658,9.429,9.429,0,0,0-.792-5.689,4.23,4.23,0,0,0-3.992-2.037,5.847,5.847,0,0,0-2.534.525,5.488,5.488,0,0,0-1.915,1.513,7.863,7.863,0,0,0-1.307,2.431,14.64,14.64,0,0,0-.69,3.258,13.583,13.583,0,0,0,.006,3.248,6.164,6.164,0,0,0,.8,2.411,4.071,4.071,0,0,0,1.6,1.5A5.144,5.144,0,0,0,1077.3,588.633Z" transform="translate(-1032.156 -562.246)"/>
    </g>
  </g>
</svg>
